<?xml version="1.0" standalone="no"?>
<!DOCTYPE svg PUBLIC "-//W3C//DTD SVG 20010904//EN"
 "http://www.w3.org/TR/2001/REC-SVG-20010904/DTD/svg10.dtd">
<svg version="1.0" xmlns="http://www.w3.org/2000/svg"
 width="0" height="0" viewBox="0 0 1280.000000 569.000000"
 preserveAspectRatio="xMidYMid meet">
<metadata>
Created by potrace 1.15, written by Peter Selinger 2001-2017
</metadata>
<g transform="translate(0.000000,569.000000) scale(0.100000,-0.100000)"
fill="#0665d8" stroke="none">
<path d="M10575 5678 c-4 -10 1 -59 10 -110 19 -107 14 -186 -17 -236 -11 -18
-18 -36 -14 -39 3 -3 30 13 61 37 l55 43 123 -6 c67 -4 163 -3 212 2 50 4 92
6 94 5 2 -2 -6 -18 -17 -36 -30 -49 -34 -85 -19 -170 7 -43 10 -78 7 -78 -4 0
-17 11 -29 24 -24 25 -139 82 -148 73 -3 -3 2 -16 11 -29 22 -31 21 -52 -1
-43 -42 18 -115 27 -160 20 -40 -6 -55 -15 -95 -57 -53 -55 -61 -47 -23 21 14
24 24 45 22 47 -2 2 -21 -14 -43 -36 -44 -42 -57 -76 -75 -190 -10 -68 -4
-157 17 -228 2 -7 -13 -38 -34 -70 -20 -32 -48 -81 -61 -110 -26 -55 -46 -71
-31 -24 17 53 36 102 43 108 4 4 7 14 7 23 0 32 -31 -14 -50 -75 l-18 -59 -1
53 c-1 29 4 62 9 73 7 13 7 19 0 19 -15 0 -56 -69 -75 -127 -18 -57 -30 -66
-40 -32 -4 12 -18 46 -32 77 -29 67 -43 57 -43 -30 0 -68 -10 -72 -57 -26
l-33 32 0 -40 c0 -23 -3 -44 -6 -47 -11 -11 -64 26 -82 56 -26 43 -35 32 -29
-33 4 -32 3 -61 -2 -64 -13 -8 -81 71 -81 94 0 14 -7 20 -21 20 -29 0 -58 17
-106 64 -50 46 -60 79 -15 48 15 -10 45 -29 67 -42 l39 -24 -24 39 c-13 22
-32 53 -43 68 -10 16 -17 30 -15 33 3 2 33 -18 68 -45 82 -64 101 -56 60 24
-11 21 -18 41 -16 43 3 2 20 -8 39 -22 19 -14 36 -26 40 -26 5 0 -1 23 -25 95
-22 67 -19 68 35 10 48 -52 56 -57 63 -41 4 11 -1 35 -15 62 -28 59 -27 61 14
25 36 -32 85 -40 143 -25 40 11 23 24 -24 17 -38 -5 -46 -3 -42 8 3 9 -12 24
-41 40 -72 41 -99 75 -121 149 -30 100 -24 113 13 35 48 -100 77 -131 137
-145 44 -11 78 -9 133 6 14 5 17 17 17 80 0 59 3 74 15 74 11 0 15 11 15 42 0
39 -1 40 -18 25 -16 -15 -21 -15 -38 -2 -10 8 -26 15 -34 15 -8 0 -56 24 -107
53 -64 36 -126 85 -207 160 -69 65 -116 102 -116 92 0 -9 18 -49 40 -89 47
-86 75 -163 85 -236 4 -30 18 -82 31 -116 l23 -62 -22 -19 c-12 -10 -58 -46
-101 -78 -128 -96 -193 -198 -271 -427 l-46 -133 0 -170 c-1 -93 3 -183 7
-200 10 -41 99 -266 130 -328 15 -29 55 -100 90 -159 72 -119 230 -299 351
-398 134 -110 212 -191 278 -289 77 -114 81 -139 30 -187 -69 -65 -116 -74
-384 -74 -131 0 -262 4 -290 10 -57 11 -163 51 -274 104 -40 19 -114 52 -165
74 -133 57 -301 156 -384 225 -133 113 -194 229 -217 417 -6 47 -16 128 -22
180 -7 52 -12 172 -13 265 l-1 170 57 139 c75 182 69 192 -34 53 -33 -44 -69
-99 -80 -120 -28 -55 -38 -34 -38 80 0 115 37 277 74 326 29 38 32 47 14 47
-25 0 -88 -54 -140 -119 -43 -55 -59 -86 -87 -174 -19 -59 -38 -107 -41 -107
-8 0 -30 224 -30 295 0 28 7 86 15 130 17 94 19 135 6 135 -5 0 -39 -42 -75
-94 -49 -70 -73 -116 -93 -182 -16 -48 -33 -89 -39 -91 -15 -5 -53 87 -65 155
-5 32 -9 121 -9 200 0 78 -4 142 -8 142 -19 0 -93 -178 -107 -259 -8 -46 -17
-86 -19 -88 -7 -7 -23 27 -56 117 -22 60 -30 99 -30 148 0 82 -9 101 -34 73
-25 -27 -45 -88 -46 -137 0 -79 -13 -165 -23 -161 -16 5 -87 194 -106 282 -10
43 -20 75 -23 70 -20 -35 -58 -184 -65 -255 l-9 -85 -32 70 c-19 39 -45 106
-59 150 -43 133 -38 123 -50 100 -6 -11 -16 -63 -23 -116 -11 -93 -10 -107 16
-251 4 -21 5 -38 2 -38 -2 0 -26 29 -52 65 -57 78 -123 221 -132 288 -4 26
-10 47 -15 47 -23 0 -30 -48 -27 -182 l3 -140 -26 32 c-15 17 -48 73 -74 123
-26 51 -54 98 -61 106 -22 24 -27 -9 -22 -140 4 -85 2 -119 -6 -116 -6 2 -40
47 -76 101 -73 111 -78 110 -79 -15 -1 -51 6 -99 20 -144 11 -37 18 -70 15
-73 -11 -10 -60 33 -106 94 -25 32 -55 73 -68 89 l-23 30 4 -70 c3 -38 14 -97
26 -130 11 -32 21 -62 21 -64 0 -3 -43 37 -96 89 l-96 95 5 -47 c2 -26 16 -72
31 -101 28 -58 32 -77 15 -77 -13 0 -73 44 -121 89 -21 19 -40 32 -43 30 -7
-8 23 -106 46 -151 23 -45 23 -48 2 -48 -36 0 2 -15 95 -36 53 -12 95 -23 92
-23 -3 -1 -69 -23 -148 -49 -107 -37 -138 -44 -126 -31 16 17 15 19 -10 29
-15 5 -31 10 -35 10 -5 0 -14 7 -21 15 -15 19 -14 19 44 -1 52 -18 130 -15
181 6 l30 12 -65 24 c-82 31 -110 45 -110 56 0 5 9 4 21 -2 38 -21 32 -2 -8
23 -66 42 -102 57 -108 47 -3 -5 10 -39 30 -76 19 -37 32 -70 30 -73 -3 -2
-34 8 -70 22 -88 36 -99 36 -91 -5 3 -18 16 -42 28 -55 12 -13 19 -25 16 -28
-3 -3 -41 6 -84 19 -43 14 -80 23 -82 21 -3 -3 0 -32 5 -66 l10 -61 -63 6 -64
7 10 -26 c6 -15 10 -40 10 -56 0 -28 -2 -29 -45 -29 l-45 0 0 -40 c0 -46 17
-76 59 -107 l29 -22 -6 65 c-3 39 -1 64 5 64 6 0 13 -30 16 -67 4 -39 13 -73
22 -82 23 -23 27 -8 10 39 -19 53 -19 81 -1 105 12 17 13 16 20 -10 6 -23 9
-26 17 -14 7 12 9 12 9 0 0 -26 13 -2 20 36 l7 38 6 -35 c3 -19 9 -56 12 -82
5 -42 59 -137 71 -126 2 2 -10 39 -26 82 -34 88 -37 119 -14 176 20 49 34 51
34 5 0 -28 4 -35 19 -35 14 0 21 -8 23 -27 6 -53 25 -34 31 32 4 36 11 73 16
83 12 20 13 14 11 -53 0 -27 6 -68 14 -90 l15 -40 0 32 c1 17 -3 43 -8 57 -20
50 15 134 40 95 4 -6 12 -8 18 -5 6 4 11 2 11 -5 0 -8 4 -8 15 1 25 21 21
-115 -6 -165 -11 -22 -23 -65 -26 -95 -4 -47 -2 -58 16 -74 11 -11 21 -28 21
-40 0 -25 -30 -106 -40 -106 -4 0 -10 39 -13 87 -5 67 -11 93 -27 113 -12 14
-26 37 -33 52 -14 35 -37 36 -37 3 0 -14 -4 -25 -10 -25 -5 0 -10 -21 -10 -47
0 -27 -4 -54 -9 -62 -12 -19 -51 -4 -51 21 0 11 -5 18 -12 16 -6 -2 -21 5 -32
16 l-21 21 -3 -31 c-2 -18 -12 -40 -22 -49 -17 -16 -19 -15 -31 7 -17 33 -18
33 -34 12 -9 -11 -14 -42 -15 -76 0 -70 -12 -74 -62 -22 -25 25 -38 51 -46 87
-21 99 -24 127 -14 127 5 0 12 -19 16 -42 8 -51 59 -132 64 -103 2 9 -6 31
-19 48 -15 20 -24 50 -27 84 l-4 53 -59 0 -59 0 6 -27 c9 -38 13 -43 30 -43 9
0 14 -6 11 -12 -3 -9 -22 -12 -65 -9 -34 1 -62 -1 -62 -6 0 -5 11 -24 25 -43
14 -19 25 -37 25 -42 0 -4 -16 -14 -35 -22 -37 -16 -42 -25 -24 -43 17 -17 7
-57 -16 -61 -26 -5 -45 -30 -45 -59 0 -52 -116 -242 -261 -427 -79 -101 -205
-215 -280 -255 -35 -18 -73 -41 -84 -51 -67 -59 -169 -80 -400 -80 -194 0
-311 10 -390 34 -134 41 -478 317 -520 418 -17 42 -36 196 -36 305 -1 91 21
140 96 214 30 30 55 57 55 61 0 16 -42 7 -93 -18 -104 -52 -134 -86 -167 -191
-14 -45 -24 -53 -34 -27 -17 45 1 134 41 197 13 21 22 41 19 44 -3 3 -20 -3
-38 -14 -21 -12 -44 -42 -68 -86 -19 -37 -38 -67 -42 -67 -5 0 -8 34 -8 75 0
41 -4 75 -8 75 -11 0 -46 -39 -61 -67 -6 -12 -11 -40 -11 -63 0 -76 -31 -19
-45 83 -3 26 -10 47 -14 47 -15 0 -51 -97 -51 -135 0 -52 -14 -36 -36 40 -10
36 -22 65 -27 65 -12 0 -27 -48 -27 -86 0 -46 -16 -41 -46 16 -32 59 -44 70
-44 40 0 -14 -3 -35 -6 -48 l-7 -23 -29 28 -29 28 -19 -25 c-16 -21 -21 -23
-44 -12 -17 7 -33 9 -44 3 -9 -5 -59 -14 -110 -20 -103 -13 -283 -70 -399
-126 -89 -44 -197 -123 -327 -241 -192 -174 -245 -199 -411 -191 -130 7 -225
33 -287 80 -53 41 -239 245 -318 349 -69 92 -89 133 -136 288 -58 186 -57 347
1 577 69 271 288 456 565 478 96 8 91 10 303 -94 67 -33 172 -77 232 -97 94
-31 124 -37 205 -38 128 -1 229 24 282 72 58 53 145 182 159 236 26 103 -3
269 -67 387 -35 63 -146 170 -250 238 -113 75 -306 167 -397 191 -206 52 -487
66 -633 30 -159 -38 -383 -131 -497 -207 -67 -45 -78 -48 -152 -54 -116 -9
-160 19 -186 121 -7 28 -17 50 -22 50 -22 0 -36 -38 -37 -94 0 -112 70 -196
184 -217 73 -13 125 -3 248 51 192 85 306 128 413 156 101 27 123 29 280 28
185 0 199 -3 363 -66 127 -49 258 -134 339 -221 128 -138 148 -277 49 -352
-33 -25 -42 -27 -105 -23 -56 3 -81 10 -137 41 -38 21 -136 71 -219 112 -139
69 -158 76 -255 90 -141 20 -207 19 -298 -5 -165 -42 -276 -95 -447 -211 -140
-95 -290 -273 -372 -442 -114 -235 -134 -343 -114 -627 16 -225 23 -259 82
-417 74 -197 153 -357 212 -422 105 -118 273 -283 309 -304 21 -11 38 -24 38
-29 0 -4 -118 -8 -262 -8 -145 0 -294 -5 -333 -11 -123 -17 -125 -55 -4 -86
38 -9 69 -21 69 -25 0 -4 -19 -8 -42 -8 -53 0 -69 -10 -62 -36 5 -19 15 -21
141 -27 226 -11 703 -8 703 4 0 7 31 8 98 4 53 -3 160 -7 237 -9 77 -2 192 -9
255 -15 63 -6 145 -11 182 -11 37 0 79 -5 95 -12 26 -11 229 -42 356 -55 33
-3 63 -1 68 4 7 7 -31 17 -108 31 -98 17 -106 20 -48 16 39 -3 104 -11 145
-19 78 -13 127 -5 145 26 11 16 -30 49 -60 49 -33 0 -55 10 -55 25 0 9 -15 15
-37 18 -37 4 -37 4 4 3 53 0 62 8 26 22 -23 9 -221 31 -282 32 -28 0 3 17 99
53 84 32 139 59 294 140 81 43 333 31 386 -18 39 -35 310 -219 504 -342 141
-89 273 -166 385 -224 l123 -64 -58 -8 c-109 -15 -120 -17 -139 -31 -29 -21
-5 -43 67 -63 69 -19 77 -41 16 -45 -35 -2 -43 -7 -43 -23 0 -15 10 -22 40
-28 68 -14 715 -21 715 -8 0 18 248 13 480 -9 113 -11 231 -20 262 -20 31 0
58 -5 60 -10 2 -6 66 -20 143 -30 218 -31 320 -22 120 11 -44 7 -74 14 -66 17
7 2 64 -4 127 -13 106 -17 114 -17 138 -1 45 29 28 62 -38 73 -20 3 -36 11
-36 19 0 7 -12 15 -27 17 -26 4 -26 4 5 6 17 0 32 6 32 11 0 16 -41 28 -121
35 -84 7 -276 34 -299 42 -8 3 28 20 80 38 149 50 158 56 575 349 157 111 202
151 317 285 241 278 402 433 510 491 91 49 233 73 393 67 197 -8 345 -59 460
-159 129 -112 258 -229 346 -312 53 -50 150 -128 215 -174 66 -46 180 -131
254 -189 219 -171 474 -329 667 -413 54 -23 112 -49 128 -57 70 -33 184 -54
355 -64 194 -12 700 -6 850 10 102 12 239 38 255 51 6 4 46 19 90 34 l80 28
245 -12 c135 -6 254 -16 265 -20 11 -5 74 -14 140 -20 66 -7 154 -15 195 -20
74 -8 166 -3 155 9 -4 3 -66 13 -138 22 -73 9 -114 17 -92 18 22 0 97 -6 167
-13 124 -14 153 -13 192 10 41 24 -9 64 -80 64 -23 0 -34 5 -34 14 0 10 -17
16 -57 21 -96 10 -103 14 -15 9 46 -2 82 0 82 5 0 17 -34 22 -190 32 -85 5
-191 13 -235 19 -44 5 -126 12 -183 16 l-103 7 39 41 c46 47 61 75 103 188 96
257 102 393 23 550 -70 139 -151 248 -228 307 -47 36 -104 69 -446 256 -286
157 -342 201 -443 353 -54 81 -69 122 -84 229 -5 36 -1 50 21 83 30 46 58 60
119 60 79 0 124 -33 344 -250 114 -113 240 -229 278 -257 80 -60 304 -175 385
-197 30 -9 82 -20 115 -25 33 -6 83 -15 110 -21 59 -13 101 -7 192 27 37 13
100 34 138 45 78 22 108 47 126 107 18 60 6 85 -55 121 -56 31 -116 91 -116
114 0 7 18 18 39 25 44 13 165 96 259 179 36 31 90 94 123 143 34 51 81 106
109 128 47 37 131 76 192 88 25 5 28 3 28 -21 0 -14 4 -26 8 -26 28 0 122 24
122 31 0 5 -5 9 -10 9 -6 0 -31 19 -55 41 -44 40 -45 41 -45 17 0 -23 -4 -26
-59 -31 -67 -7 -158 -39 -194 -67 -13 -11 -53 -61 -87 -112 -98 -143 -135
-183 -230 -248 -96 -64 -135 -83 -191 -94 -35 -6 -38 -4 -77 48 -37 49 -120
126 -136 126 -3 0 9 -21 28 -47 43 -61 78 -131 71 -142 -11 -18 -159 -22 -246
-7 -104 19 -243 66 -319 109 -66 37 -165 134 -242 237 -84 112 -190 223 -284
296 -46 36 -81 70 -78 77 8 22 93 67 169 89 l73 21 101 -32 101 -32 0 -99 c0
-111 4 -130 30 -130 15 0 21 16 34 93 9 50 17 106 18 122 3 29 5 30 68 36 36
4 68 4 71 0 4 -3 17 -61 30 -128 12 -68 26 -123 30 -123 8 0 12 18 30 124 9
54 9 80 -2 124 -13 54 -12 56 11 71 14 9 40 29 58 45 38 33 39 33 74 -44 11
-25 22 -71 25 -102 6 -62 27 -94 40 -62 4 11 8 60 8 109 0 73 -5 100 -24 143
-23 51 -23 53 -5 73 33 37 46 21 49 -66 3 -90 11 -119 31 -111 8 3 14 1 14 -3
0 -5 13 -23 30 -41 29 -31 29 -32 32 -166 3 -132 11 -160 33 -116 6 11 16 26
22 33 24 31 56 369 34 369 -6 0 -11 11 -11 25 0 13 -13 44 -29 67 -44 64 -46
81 -13 95 15 7 51 15 80 19 46 6 58 4 83 -15 36 -27 49 -20 49 25 0 42 -28 99
-67 136 -25 24 -38 28 -96 30 -37 1 -67 6 -67 11 0 6 5 39 11 74 15 84 -10
230 -53 312 -47 90 -51 88 -44 -29 8 -126 -6 -194 -55 -275 -55 -90 -57 -91
-120 -47 -52 36 -54 39 -60 94 -4 32 -16 72 -29 93 -43 69 -151 95 -229 55
-21 -10 -41 -17 -44 -14 -3 3 -35 1 -72 -4 -36 -6 -97 -8 -136 -5 l-70 6 -24
47 c-17 33 -45 63 -99 103 -41 31 -83 68 -93 82 -49 69 -51 71 -58 53z m685
-347 c0 -13 7 -18 27 -18 34 0 73 -44 72 -81 0 -15 -3 -22 -5 -15 -8 19 -71
54 -91 51 -13 -2 -18 3 -17 18 1 28 -20 21 -35 -12 -15 -35 -14 -65 5 -94 27
-40 45 -50 92 -50 36 0 43 -3 40 -17 -3 -15 -12 -17 -48 -15 -53 3 -84 22
-110 65 -31 50 -26 109 11 152 34 38 59 45 59 16z m-473 -238 c-3 -5 14 -8 37
-9 88 -2 146 -64 146 -156 0 -45 -5 -60 -25 -82 -21 -23 -80 -56 -100 -56 -15
0 -2 30 15 35 38 12 70 57 70 98 0 44 -22 92 -49 107 -25 13 -78 13 -86 0 -3
-6 5 -10 19 -10 31 0 46 -26 45 -77 0 -33 -1 -35 -9 -15 -5 12 -23 30 -40 40
-17 10 -30 25 -30 36 0 18 -2 18 -25 -4 -33 -31 -35 -104 -5 -143 28 -35 7
-45 -25 -13 -25 25 -25 25 -25 4 0 -36 -18 -8 -34 52 l-15 55 0 -48 c-1 -53
-20 -57 -22 -4 l-2 32 -7 -35 c-7 -34 -7 -34 -9 13 -2 68 40 131 114 170 31
17 70 23 62 10z m-9383 -174 c12 -27 53 -59 78 -59 7 0 8 16 5 41 -6 48 13 50
25 2 4 -17 19 -38 33 -47 24 -16 26 -16 35 9 6 15 10 33 10 41 0 8 5 14 10 14
6 0 10 -11 10 -25 0 -14 9 -33 20 -42 25 -22 25 -29 0 -36 -26 -7 -36 -35 -21
-60 8 -12 9 -22 3 -26 -5 -3 -11 -15 -13 -26 -4 -21 -49 -35 -49 -15 0 6 -4 9
-9 5 -11 -6 -31 26 -31 50 0 10 6 15 13 12 21 -8 49 19 45 45 -2 16 -10 23
-28 25 -14 0 -35 4 -47 8 -19 6 -23 4 -23 -13 0 -11 4 -32 9 -46 12 -31 -5
-71 -37 -86 -31 -13 -32 -13 -32 9 0 10 -7 22 -16 25 -15 6 -15 8 2 27 11 13
26 18 39 15 17 -4 20 -1 20 19 -2 33 -32 65 -62 65 -12 0 -23 5 -23 10 0 6 5
10 10 10 6 0 10 9 10 19 0 11 -4 23 -10 26 -13 8 -13 35 0 35 6 0 17 -14 24
-31z m8396 -370 c3 -4 28 -20 55 -36 52 -30 115 -109 115 -144 0 -24 -48 -26
-96 -3 -36 17 -43 29 -21 37 14 5 8 8 -60 26 -38 10 -110 67 -99 78 2 3 28
-11 58 -31 84 -57 131 -45 65 18 -35 33 -77 89 -77 102 0 6 46 -29 60 -47z
m47 -201 c29 -26 63 -52 77 -58 14 -5 26 -16 26 -24 0 -20 -33 -29 -83 -21
l-42 6 48 -27 c38 -22 47 -33 47 -55 0 -32 -14 -39 -78 -39 l-47 -1 48 -25
c27 -14 60 -24 75 -22 21 2 27 -2 34 -27 13 -50 6 -55 -67 -48 -111 10 -68
-38 48 -52 46 -6 57 -11 57 -25 0 -36 -14 -53 -62 -75 -46 -21 -48 -24 -26
-31 12 -4 45 -6 71 -5 27 1 55 -3 63 -10 12 -10 11 -17 -12 -48 -41 -55 -65
-71 -109 -71 -31 0 -36 -3 -23 -10 18 -11 69 -15 136 -10 61 5 73 -12 36 -51
-16 -17 -45 -39 -64 -49 l-35 -19 90 -1 c65 0 97 -4 113 -16 45 -31 21 -71
-64 -104 l-49 -19 127 2 c69 1 129 -1 133 -5 15 -15 -18 -47 -85 -82 -38 -20
-70 -41 -70 -47 0 -17 80 -9 147 16 41 16 70 22 76 16 14 -14 -11 -78 -41
-102 l-27 -22 98 6 c97 6 98 6 95 -16 -4 -31 -83 -71 -191 -98 -48 -12 -90
-19 -93 -17 -2 3 23 16 56 28 33 12 59 24 58 26 -3 2 -76 -17 -162 -43 -13 -4
-17 -1 -15 12 3 13 21 22 64 32 107 24 91 36 -40 28 -100 -6 -118 -5 -107 7 7
7 36 20 65 29 l52 16 -79 -5 c-92 -6 -97 8 -9 27 32 8 63 16 68 19 15 10 -62
24 -135 26 -86 3 -90 4 -90 21 0 14 56 35 95 35 33 0 95 20 95 30 0 6 -24 10
-52 11 -62 1 -177 20 -197 33 -18 12 4 25 44 26 17 1 43 6 58 13 24 10 15 12
-62 9 -62 -3 -91 0 -91 7 0 6 13 11 30 11 32 0 80 19 80 31 0 4 -21 11 -47 14
-56 7 -86 18 -130 48 -48 32 -44 57 10 58 23 0 62 4 87 8 l45 7 -31 8 c-18 4
-39 15 -49 25 -10 12 -37 21 -73 26 -71 8 -92 14 -92 26 0 5 39 10 88 10 92 2
89 4 -20 14 -38 4 -68 11 -68 17 0 6 32 7 90 2 64 -5 90 -3 90 5 0 19 -74 60
-128 71 -46 8 -92 25 -92 34 0 1 39 1 88 0 l87 -3 -77 12 c-114 18 -123 36
-14 30 122 -8 115 11 -34 90 -60 31 -85 50 -85 63 0 17 8 18 90 15 l90 -3 -20
22 c-11 12 -48 35 -82 50 -54 25 -91 59 -78 72 3 2 37 -6 76 -19 39 -13 83
-23 97 -21 25 3 24 5 -22 33 -51 31 -100 77 -118 109 -9 16 -8 18 8 11 70 -29
150 -53 158 -47 6 3 -10 11 -34 17 -50 13 -105 39 -115 55 -10 16 12 12 55
-10 22 -11 55 -20 75 -20 l36 0 -36 31 c-19 17 -49 49 -67 71 l-31 40 59 -33
c32 -18 82 -54 111 -81z m-2054 -94 c25 -71 64 -168 88 -215 24 -46 45 -87 47
-91 6 -13 -18 -9 -53 7 -24 12 -35 26 -44 58 -7 23 -26 77 -43 120 -17 43 -28
80 -24 84 3 3 11 -7 16 -23 13 -37 52 -116 44 -89 -3 11 -21 65 -39 120 -33
100 -52 174 -42 165 3 -3 26 -64 50 -136z m191 -46 c75 -206 127 -334 146
-358 19 -25 19 -24 0 40 -27 87 -26 134 1 65 16 -43 18 -45 14 -15 -18 113
-34 234 -39 300 -9 112 10 64 23 -60 15 -130 47 -310 66 -369 18 -54 13 -62
-17 -30 -13 13 -32 24 -43 25 -31 1 -164 91 -177 120 -9 19 -9 30 -1 44 9 14
6 34 -12 91 -20 62 -21 77 -11 93 10 16 10 31 -1 75 -16 70 -16 81 0 81 7 0
29 -44 51 -102z m-391 -136 c-7 -2 -21 2 -32 8 -18 9 -21 8 -21 -10 0 -36 19
-62 41 -55 20 7 27 -9 9 -20 -5 -3 -10 -13 -10 -22 0 -12 3 -13 15 -3 25 21
38 1 33 -52 -3 -27 -2 -51 3 -54 4 -2 27 20 50 51 38 51 69 70 69 44 0 -6 -18
-38 -41 -71 -22 -33 -38 -62 -36 -64 3 -3 26 20 52 51 53 61 70 69 62 28 -18
-87 -26 -115 -41 -138 -10 -15 -16 -29 -13 -31 6 -7 29 23 57 75 25 46 63 72
126 87 26 6 22 0 -30 -47 -54 -49 -95 -113 -96 -148 0 -23 16 0 29 41 13 39
95 123 111 113 16 -10 11 -56 -10 -104 -30 -65 -25 -67 33 -15 60 54 114 81
130 65 8 -8 3 -18 -18 -34 -66 -51 -97 -82 -111 -108 -23 -45 -17 -42 46 21
33 33 65 60 70 60 21 0 9 -39 -25 -83 -44 -57 -44 -67 -2 -31 73 63 92 74 125
74 l34 0 -61 -51 c-34 -28 -61 -53 -61 -55 0 -2 23 11 51 31 28 19 55 35 60
35 5 0 9 -13 9 -30 0 -21 -9 -36 -35 -57 -60 -48 -42 -59 30 -19 91 50 122 48
58 -3 -26 -21 -61 -53 -78 -71 l-30 -33 33 19 c18 10 54 36 79 57 25 21 47 36
48 35 2 -2 0 -18 -3 -37 -3 -23 -19 -48 -50 -77 -49 -47 -42 -59 11 -20 38 28
95 56 114 56 23 0 14 -17 -14 -29 -29 -12 -144 -111 -130 -111 4 0 35 23 68
50 33 28 64 50 70 50 27 0 -3 -83 -50 -134 -23 -25 -23 -27 -5 -18 12 7 46 32
75 57 53 45 94 56 94 25 0 -14 -16 -26 -102 -78 -34 -21 -83 -72 -68 -72 3 0
24 17 48 39 44 41 113 76 122 62 2 -5 -4 -16 -15 -26 -10 -9 -16 -23 -14 -30
3 -7 -11 -32 -31 -54 -21 -23 -34 -41 -31 -41 4 0 43 18 87 41 57 28 85 37 92
30 10 -10 -40 -37 -132 -72 -13 -5 -21 -12 -18 -16 4 -3 31 5 62 17 31 12 58
20 61 18 2 -3 -12 -18 -31 -33 -39 -29 -41 -44 -3 -24 21 11 22 11 9 -5 -13
-16 -12 -17 15 -14 40 4 38 -20 -5 -49 -19 -13 -44 -37 -55 -53 -35 -50 -80
-54 -58 -5 27 58 -50 32 -121 -41 -39 -41 -44 -51 -32 -60 13 -9 13 -13 0 -30
-21 -27 -18 -36 8 -28 22 7 22 6 3 -15 -11 -11 -25 -21 -32 -21 -7 0 -39 -29
-70 -65 -32 -36 -61 -65 -66 -65 -19 0 -5 39 31 86 29 38 37 58 34 77 -4 18
-10 24 -20 20 -12 -5 -14 -1 -8 18 7 21 6 22 -9 10 -15 -12 -20 -8 -17 12 3
18 -20 3 -63 -43 -26 -27 -51 -50 -56 -50 -27 0 2 61 59 123 18 20 21 26 8 22
-12 -5 -17 -2 -17 10 0 12 -5 15 -20 10 -14 -5 -20 -2 -20 9 0 29 -18 16 -57
-39 -21 -30 -41 -55 -45 -55 -4 0 -10 9 -13 20 -5 15 6 35 45 80 29 33 48 60
43 60 -5 0 -14 -5 -21 -12 -15 -15 -16 -3 -2 23 12 20 4 24 -20 9 -9 -5 -19
-5 -27 2 -14 11 -34 -8 -74 -69 -28 -45 -51 -45 -38 -1 5 18 9 35 9 37 0 2 34
35 75 75 l75 72 -29 74 c-66 172 -92 222 -185 353 -150 212 -236 393 -236 499
l0 57 48 -47 c26 -26 42 -48 35 -50z m-701 -14 c-65 -106 -72 -122 -71 -183
l1 -60 21 86 c30 115 89 195 104 139 3 -11 9 -20 13 -20 4 0 5 -20 2 -45 -2
-25 -2 -45 1 -45 3 0 17 25 31 55 25 54 72 112 83 101 3 -3 -13 -37 -36 -76
-25 -42 -41 -80 -39 -93 3 -17 7 -13 18 21 18 56 30 53 30 -8 0 -28 10 -90 22
-138 19 -75 28 -93 66 -134 25 -27 39 -48 32 -48 -12 0 -45 31 -106 100 -16
19 -62 63 -102 98 l-72 63 0 -49 c0 -69 36 -158 82 -203 21 -20 38 -43 38 -50
0 -8 -37 22 -82 66 -46 44 -107 103 -137 130 l-53 50 7 -48 c7 -50 48 -150 73
-180 34 -38 -1 -25 -89 33 l-92 63 6 -33 c4 -18 7 -45 7 -61 0 -17 12 -42 31
-64 33 -37 33 -61 1 -32 -10 9 -47 31 -83 49 -94 48 -112 83 -105 208 5 101
22 199 37 214 5 6 17 2 29 -12 30 -31 29 -149 -1 -181 -16 -17 -18 -26 -10
-34 23 -23 42 17 51 111 9 95 33 164 69 196 27 25 27 16 -4 -42 -23 -42 -25
-58 -25 -165 0 -76 4 -116 10 -112 6 3 10 30 10 58 1 92 18 189 37 215 25 33
43 39 43 14 0 -12 9 -23 20 -27 13 -4 20 -15 20 -33 0 -27 0 -27 21 8 33 54
92 130 102 130 5 0 0 -15 -11 -32z m518 5 c0 -5 -7 -17 -15 -27 -29 -38 -16
-51 15 -16 l29 35 -9 -35 c-6 -19 -10 -73 -10 -120 0 -96 10 -119 104 -235 25
-31 46 -63 46 -73 -1 -23 -86 71 -126 140 -17 29 -59 100 -93 157 -44 76 -61
114 -61 140 l0 36 20 -25 c17 -23 20 -23 32 -9 21 27 68 49 68 32z m-290 -42
c0 -31 29 -79 30 -49 0 21 46 76 55 66 4 -3 2 -15 -4 -26 -13 -25 -14 -52 -3
-52 5 0 14 10 19 23 9 18 11 9 17 -53 4 -41 14 -100 21 -130 13 -52 13 -54 -3
-30 -9 14 -45 55 -80 91 -76 80 -111 156 -85 182 21 21 33 13 33 -22z m-6301
23 c36 -7 36 -23 0 -41 -13 -7 -28 -18 -34 -26 -5 -7 -19 -17 -30 -22 -17 -8
-15 -10 15 -13 58 -6 60 -22 2 -22 -29 0 -52 -4 -52 -10 0 -5 17 -10 39 -10
30 0 40 -4 44 -20 3 -11 0 -20 -6 -20 -8 0 -7 -3 1 -9 10 -6 8 -10 -10 -15
-17 -4 -20 -8 -9 -15 15 -10 9 -15 -34 -27 -29 -8 -29 -8 14 -13 45 -6 71 -31
32 -31 -11 0 -23 -4 -26 -10 -3 -5 2 -10 11 -10 23 0 8 -13 -33 -29 -28 -11
-35 -11 -48 3 -28 28 -54 37 -73 27 -25 -13 -44 -53 -40 -82 3 -22 7 -24 48
-21 25 2 52 8 61 12 28 16 119 24 119 11 0 -6 -10 -16 -22 -21 -18 -7 -19 -9
-5 -9 29 -1 19 -17 -20 -29 -27 -8 -48 -8 -80 0 -37 9 -50 8 -83 -7 -42 -19
-54 -45 -21 -45 11 0 23 -5 26 -11 11 -16 82 0 123 27 38 26 79 40 89 31 3 -3
-11 -13 -31 -21 -48 -20 -45 -27 9 -19 54 7 59 -6 10 -33 -19 -10 -35 -24 -35
-31 0 -8 -11 -18 -24 -24 -20 -9 -27 -7 -49 15 -42 42 -106 31 -121 -20 -4
-13 0 -26 12 -38 18 -15 22 -15 73 3 97 34 184 59 191 54 5 -2 3 -13 -2 -24
-6 -10 -7 -19 -3 -19 4 0 -5 -8 -22 -18 -16 -11 -36 -26 -44 -35 -17 -21 -41
-22 -41 -2 0 11 -11 15 -42 15 -34 -1 -47 -6 -61 -25 -17 -24 -17 -25 3 -45
28 -28 50 -25 110 15 60 41 64 42 50 15 -13 -25 -9 -25 32 0 37 22 47 24 67
11 11 -7 9 -14 -14 -35 -15 -14 -32 -26 -36 -26 -5 0 -9 -7 -9 -16 0 -14 2
-14 22 0 28 20 44 21 28 2 -6 -8 -27 -20 -46 -26 -30 -10 -39 -9 -70 10 -34
22 -36 22 -74 5 -26 -12 -50 -15 -77 -11 -54 9 -85 8 -97 -4 -12 -12 -26 -13
-26 -1 0 5 14 14 30 21 17 7 35 21 41 31 5 11 16 19 24 19 8 0 15 4 15 9 0 14
-67 18 -118 8 -24 -5 -46 -6 -49 -3 -11 10 42 45 68 46 15 0 29 7 33 15 3 8 1
15 -4 15 -5 0 -6 16 -3 35 6 36 2 40 -42 35 -11 -1 -32 -11 -47 -22 -16 -11
-28 -15 -28 -9 0 6 23 25 50 42 44 27 50 35 50 64 0 37 -36 73 -54 55 -6 -6
-23 -10 -40 -10 l-29 0 23 25 c13 14 31 25 41 25 26 0 49 11 49 23 0 6 7 19
16 29 16 16 15 19 -7 37 -30 24 -96 36 -115 20 -11 -9 -14 -9 -14 0 0 7 26 24
58 37 31 14 65 34 74 44 12 13 40 19 103 25 81 6 85 8 71 24 -13 15 -14 22 -3
44 6 15 17 27 22 27 6 0 -2 6 -16 14 -63 33 -111 27 -124 -14 -5 -16 -15 -21
-43 -20 -20 1 -57 -2 -82 -6 -40 -6 -44 -5 -32 8 7 9 29 18 48 21 20 4 44 13
53 21 9 7 25 16 36 19 11 2 -1 5 -27 6 -90 2 -48 20 55 24 56 1 125 4 153 5
28 1 66 -1 83 -4z m7555 -190 c18 -167 46 -282 79 -331 28 -42 34 -41 29 1 -2
18 1 37 7 40 7 5 11 -5 12 -26 1 -18 5 -44 10 -58 5 -16 7 11 3 74 -3 54 -1
137 5 185 6 47 14 122 18 166 6 67 8 42 14 -150 9 -279 29 -395 78 -453 55
-65 90 -118 97 -148 7 -26 6 -28 -9 -15 -9 7 -27 30 -39 50 -61 101 -302 405
-362 458 -40 35 -47 47 -52 89 l-5 49 21 -35 21 -35 -6 38 c-4 26 -3 37 4 32
6 -3 11 -14 11 -23 0 -9 5 -24 11 -32 11 -15 10 -7 -7 68 -11 44 9 16 28 -41
l18 -52 -5 85 c-2 47 -7 121 -10 165 -11 137 11 62 29 -101z m3446 -161 c0
-63 -1 -67 -40 -105 -40 -40 -40 -40 -97 -33 -179 21 -261 56 -350 148 -41 43
-44 49 -23 43 126 -34 281 -34 405 -2 50 13 93 21 98 19 4 -2 7 -34 7 -70z
m-8985 -395 l-5 -63 17 50 c19 52 42 67 69 44 8 -7 12 -20 9 -30 -8 -24 3 -24
27 -2 18 16 19 15 12 -27 -5 -31 -4 -41 4 -36 7 4 12 16 12 26 0 10 20 35 44
54 36 30 50 36 87 34 l44 -1 -43 -4 c-37 -4 -47 -10 -72 -45 -17 -23 -30 -48
-29 -57 0 -11 5 -9 17 9 9 14 29 38 44 55 l26 30 21 -25 c16 -20 19 -34 15
-70 l-5 -44 46 47 c54 57 82 63 31 7 -53 -59 -44 -68 12 -11 l47 50 45 -10
c51 -12 54 -14 45 -29 -5 -9 -10 -9 -18 -1 -6 6 -21 11 -33 11 -17 0 -24 -8
-29 -30 -4 -16 -3 -39 0 -51 7 -20 9 -19 46 17 53 52 62 35 10 -21 -54 -59
-52 -68 4 -16 48 44 85 52 121 27 28 -21 14 -27 -29 -14 -47 14 -70 -1 -45
-29 16 -18 16 -43 2 -93 -7 -22 -2 -20 39 18 26 23 55 42 64 42 13 -1 5 -13
-28 -43 -68 -62 -81 -87 -24 -44 81 60 99 68 133 56 17 -6 33 -17 36 -26 5
-11 2 -13 -11 -8 -10 4 -32 9 -49 12 -29 5 -31 3 -31 -26 0 -17 4 -31 9 -31 5
0 6 -5 2 -12 -4 -6 -8 -22 -10 -35 -2 -17 3 -23 17 -23 11 0 17 -5 14 -10 -3
-6 15 1 41 15 26 14 53 25 61 25 18 0 76 -30 85 -44 15 -22 7 -23 -29 -5 -53
27 -81 24 -117 -14 -38 -39 -120 -107 -131 -107 -4 0 -4 7 -1 16 9 23 -11 43
-36 36 -13 -3 -19 -1 -15 5 4 6 -1 14 -10 18 -13 4 -31 -8 -66 -44 -46 -49
-54 -77 -19 -67 11 3 24 -5 36 -20 18 -25 18 -26 -10 -55 -28 -29 -62 -37 -80
-19 -12 12 -33 -8 -59 -55 l-17 -30 8 55 c10 79 9 119 -4 132 -18 18 -54 -13
-86 -76 -16 -31 -30 -56 -33 -56 -7 0 8 73 23 113 15 40 5 64 -23 61 -7 -1
-21 -2 -31 -3 -18 -1 -82 -115 -82 -149 -1 -14 -2 -15 -9 -2 -9 14 -4 58 13
120 5 19 0 32 -24 58 -41 45 -60 31 -60 -44 0 -30 -4 -54 -10 -54 -5 0 -10 18
-10 40 0 22 -3 41 -7 41 -5 1 -19 2 -33 3 -14 0 -28 8 -32 16 -4 8 -7 -4 -7
-27 -1 -48 -15 -57 -26 -16 -3 15 -11 31 -17 34 -6 4 -14 46 -18 93 -5 68 -11
91 -28 109 -12 13 -27 37 -33 55 -12 35 -29 43 -29 13 0 -11 -4 -23 -10 -26
-5 -3 -10 -30 -10 -59 0 -46 3 -55 29 -74 17 -12 37 -19 45 -16 9 3 17 2 18
-2 5 -31 4 -232 -2 -229 -4 2 -15 31 -24 64 -15 55 -19 60 -43 58 -25 -2 -28
2 -38 56 -12 54 -49 107 -76 107 -5 0 -12 7 -15 15 -11 28 -24 15 -24 -22 0
-53 19 -84 65 -110 38 -21 40 -24 42 -75 1 -30 7 -66 12 -82 26 -67 2 -77 -26
-10 -15 38 -22 44 -41 41 -18 -4 -27 3 -43 35 -13 26 -17 44 -11 51 11 13 -14
73 -51 122 -20 27 -24 29 -37 15 -31 -31 14 -150 56 -150 20 0 35 -55 19 -71
-12 -12 -10 -22 10 -64 14 -27 25 -56 25 -62 0 -27 -18 -11 -40 37 -13 28 -29
50 -36 50 -20 0 -53 49 -60 89 -8 43 -31 81 -50 81 -18 0 -23 11 -50 108 -25
91 -31 158 -14 147 6 -3 10 -23 10 -43 0 -41 43 -142 60 -142 6 0 -1 20 -15
43 -17 30 -25 58 -25 90 0 51 7 56 45 31 l25 -16 0 41 c0 56 16 52 23 -5 3
-30 13 -54 27 -68 l22 -21 -6 30 c-16 79 -18 96 -12 119 8 34 26 33 26 -1 0
-22 2 -25 10 -13 9 13 11 13 20 0 8 -12 10 -8 11 15 0 17 4 39 9 50 7 15 9 9
9 -26 1 -63 27 -143 56 -176 l25 -28 -14 35 c-8 19 -22 63 -31 97 -16 58 -16
64 0 108 20 52 35 54 47 6 5 -17 13 -29 18 -26 6 4 10 -5 10 -19 0 -55 17 -31
28 40 7 42 15 80 18 85 12 20 24 7 25 -28 0 -30 2 -34 9 -18 4 12 15 27 24 34
13 11 17 11 22 -3 5 -13 9 -14 20 -5 11 9 14 8 14 -2 0 -8 6 -5 15 7 13 17 14
12 9 -56 -4 -41 -15 -94 -25 -117 -27 -59 -26 -154 1 -173 11 -8 20 -22 20
-31 0 -11 8 -16 24 -16 22 0 24 4 29 79 4 69 2 86 -15 117 -18 31 -20 48 -16
122 5 83 19 129 38 129 6 0 8 -26 5 -62z m7785 -192 c0 -8 -26 -35 -57 -60
-103 -81 -243 -108 -243 -46 0 17 7 20 48 21 79 1 97 17 22 19 -36 1 -76 5
-90 9 -23 7 -24 8 -5 14 11 4 60 9 108 11 67 4 95 10 115 25 32 24 102 29 102
7z m91 -114 c-35 -43 -46 -50 -98 -59 -32 -6 -60 -9 -62 -7 -2 2 2 11 10 21
11 13 5 12 -23 -5 -42 -26 -138 -45 -152 -31 -6 5 3 9 22 9 44 0 102 25 102
44 0 10 9 16 24 16 14 0 41 10 62 22 36 21 84 34 132 37 22 1 21 -2 -17 -47z
m-2026 8 c-10 -12 -34 -30 -52 -41 -21 -13 -33 -29 -33 -42 -1 -34 -31 -63
-65 -63 -23 1 -30 6 -30 21 0 15 -7 20 -28 20 -15 -1 -27 5 -27 12 0 17 40 43
67 43 12 0 32 13 47 33 19 23 26 27 26 15 0 -22 -2 -22 46 2 53 26 73 26 49 0z
m2136 -93 c-7 -18 -28 -36 -65 -54 -43 -21 -53 -30 -44 -40 6 -7 18 -13 26
-13 10 0 12 -3 7 -9 -16 -14 -121 -21 -134 -8 -17 17 -14 23 18 37 27 11 48
37 38 47 -2 2 -15 -5 -28 -15 -51 -39 -114 -55 -181 -46 -38 6 -63 14 -66 23
-4 12 8 13 67 8 78 -6 101 -2 101 19 0 10 -21 14 -77 16 -43 2 -71 6 -63 9 8
3 37 13 64 22 46 15 51 15 62 -1 11 -15 18 -15 58 -4 26 6 59 12 75 12 17 0
53 16 87 39 l59 40 3 -28 c2 -15 -2 -39 -7 -54z m525 34 c-9 -16 -27 -42 -41
-59 -13 -16 -39 -56 -56 -88 -40 -77 -56 -94 -90 -94 -16 0 -50 -13 -76 -30
-26 -16 -51 -30 -55 -30 -18 0 -6 21 21 34 33 17 247 227 274 269 23 36 42 35
23 -2z m-226 -62 c0 -27 3 -31 21 -26 20 5 20 5 2 -15 -10 -12 -41 -36 -70
-54 -36 -24 -55 -44 -62 -67 -12 -37 -57 -85 -68 -74 -4 4 9 23 27 42 39 40
28 45 -26 13 -29 -17 -57 -23 -128 -26 -65 -2 -87 0 -76 7 8 6 34 11 56 11 49
0 137 38 216 93 43 30 60 50 73 83 20 51 35 57 35 13z m-2337 -15 c-24 -20
-43 -40 -43 -45 0 -6 5 -7 10 -4 6 3 10 2 10 -4 0 -5 -4 -13 -10 -16 -5 -3
-10 -15 -10 -26 0 -17 3 -18 20 -9 16 9 18 8 14 -5 -8 -20 5 -19 28 2 18 16
18 16 4 -12 -17 -32 -10 -51 8 -21 23 38 48 66 58 66 7 0 1 -11 -12 -25 -13
-14 -19 -25 -13 -25 5 0 20 11 33 25 27 29 52 35 26 6 -22 -24 -31 -82 -18
-108 6 -10 7 -25 3 -32 -6 -9 -10 -6 -14 9 -4 16 -11 21 -21 16 -9 -3 -23 -9
-31 -12 -10 -4 -15 0 -15 11 0 14 -6 16 -26 11 -18 -5 -32 -2 -44 9 -22 20
-46 10 -99 -39 l-33 -31 20 41 c12 23 33 56 48 73 26 32 27 32 5 38 -11 3 -21
11 -21 17 0 8 -11 11 -31 8 l-30 -4 42 56 c43 57 78 81 39 26 -27 -38 -19 -38
55 5 78 45 101 44 48 -1z m2141 -61 c-17 -50 -94 -82 -236 -98 -145 -17 -188
-19 -188 -5 0 6 11 10 24 10 31 0 56 10 56 21 0 5 -19 8 -42 7 -37 -3 -43 0
-46 18 -3 19 3 22 40 26 34 4 48 1 68 -17 24 -22 27 -22 89 -9 37 8 94 31 140
57 64 37 78 42 90 31 11 -10 13 -20 5 -41z"/>
<path d="M8124 3325 c-68 -35 -78 -44 -96 -90 -12 -29 -13 -46 -6 -59 5 -10 8
-26 5 -37 -8 -29 8 -23 51 20 21 21 58 49 82 61 29 15 39 24 30 30 -7 4 -9 16
-6 28 5 14 1 24 -11 31 -15 9 -16 12 -3 20 33 22 0 19 -46 -4z"/>
<path d="M8165 3184 c-48 -24 -92 -73 -92 -100 0 -13 5 -24 12 -24 16 0 26
-25 18 -47 -3 -10 23 11 58 46 35 35 76 68 91 73 24 9 26 12 15 31 -23 42 -52
47 -102 21z"/>
<path d="M8275 3100 c-17 -3 -49 -20 -71 -38 -33 -26 -40 -38 -36 -57 2 -14 9
-25 14 -25 6 0 8 -7 5 -15 -4 -8 -2 -17 3 -20 6 -4 10 -15 10 -26 0 -31 16
-15 55 55 19 34 46 68 59 76 27 14 31 47 6 52 -8 2 -29 1 -45 -2z"/>
<path d="M918 1513 c-21 -2 -38 -6 -38 -8 0 -2 11 -15 25 -29 l25 -25 0 -267
0 -266 -31 -29 -31 -29 106 0 c99 0 133 10 86 25 -25 8 -32 35 -28 104 l3 52
78 -90 78 -91 82 0 c82 0 82 0 54 18 -26 16 -151 158 -185 210 -16 24 -15 26
18 54 56 48 117 88 134 88 8 0 17 4 21 9 5 9 -172 21 -181 12 -2 -2 5 -10 16
-18 33 -24 23 -47 -45 -101 -35 -29 -67 -52 -70 -52 -3 0 -5 99 -5 220 l0 220
-37 -2 c-21 -1 -55 -3 -75 -5z"/>
<path d="M7600 1472 c-19 -9 -45 -33 -58 -52 -32 -47 -27 -121 12 -181 27 -40
27 -42 10 -52 -45 -24 -102 -94 -114 -137 -23 -86 4 -148 80 -187 71 -37 166
-26 241 28 l30 21 27 -25 c47 -45 118 -60 165 -36 61 31 93 87 38 66 -35 -13
-79 10 -124 65 l-30 38 42 84 c23 47 53 94 66 104 14 11 25 23 25 26 0 3 -34
6 -75 6 -75 0 -88 -7 -60 -30 8 -7 15 -25 15 -40 0 -28 -18 -89 -30 -103 -3
-4 -37 29 -74 74 -37 44 -66 82 -64 82 88 43 121 83 120 147 -1 50 -15 76 -55
100 -42 26 -138 27 -187 2z m117 -55 c34 -50 39 -97 13 -130 -30 -38 -46 -34
-80 20 -33 52 -38 88 -14 121 22 32 55 28 81 -11z m11 -401 l53 -76 -33 -20
c-43 -26 -77 -25 -118 3 -69 47 -94 163 -48 222 l22 28 35 -40 c20 -22 60 -75
89 -117z"/>
<path d="M0 1470 c0 -5 5 -10 10 -10 6 0 22 -11 35 -25 l25 -24 0 -241 c0
-151 -4 -249 -11 -261 -5 -11 -22 -25 -37 -32 -22 -10 9 -12 182 -15 115 -1
210 -1 211 0 7 9 14 148 8 148 -5 0 -19 -21 -32 -46 -29 -53 -63 -74 -125 -74
-78 0 -77 -3 -74 283 l3 252 32 20 c18 11 32 23 33 28 0 4 -58 7 -130 7 -80 0
-130 -4 -130 -10z"/>
<path d="M1870 1472 c0 -5 14 -18 30 -31 l30 -22 -2 -257 -3 -256 -34 -23 -34
-23 132 0 c86 0 130 4 126 10 -3 6 -12 10 -20 10 -33 0 -45 41 -45 158 l0 113
67 -3 c64 -3 69 -5 88 -35 11 -18 23 -32 28 -33 10 0 9 178 -2 185 -5 3 -13
-5 -16 -17 -15 -47 -34 -58 -102 -58 l-63 0 0 123 c0 68 2 126 4 128 3 3 35 2
72 -1 56 -5 70 -10 89 -32 13 -15 25 -33 28 -40 9 -27 14 -1 10 55 l-5 57
-189 0 c-104 0 -189 -4 -189 -8z"/>
<path d="M4130 1471 c0 -6 11 -13 24 -17 13 -3 29 -17 35 -30 15 -33 15 -487
0 -515 -5 -11 -22 -25 -37 -32 -25 -11 -21 -12 40 -15 38 -2 98 -2 135 0 62 3
66 4 41 15 -41 18 -48 42 -48 157 l0 106 73 0 c84 0 137 24 174 79 33 49 32
133 -2 184 -45 65 -68 72 -262 75 -118 3 -173 0 -173 -7z m283 -46 c36 -15 61
-92 51 -155 -10 -60 -51 -100 -103 -100 l-41 0 0 133 c0 74 2 136 6 139 5 6
55 -4 87 -17z"/>
<path d="M8260 1470 c0 -5 5 -10 10 -10 6 0 22 -11 35 -25 l25 -24 0 -241 c0
-146 -4 -249 -10 -260 -6 -11 -23 -26 -38 -34 -25 -14 -17 -15 107 -16 l134 0
-34 23 -34 23 -3 122 -3 122 26 0 c48 0 65 -20 130 -155 l65 -135 81 0 80 0
-34 33 c-19 18 -54 74 -80 128 -25 52 -57 109 -71 126 l-26 31 30 12 c32 13
63 57 74 103 18 76 -43 157 -134 176 -65 14 -330 15 -330 1z m300 -55 c28 -25
43 -80 36 -128 -11 -67 -45 -97 -110 -97 l-36 0 0 126 0 127 45 -6 c25 -2 54
-12 65 -22z"/>
<path d="M3766 1361 c-20 -27 -54 -65 -76 -85 -44 -39 -46 -56 -5 -48 l25 4 0
-138 c0 -167 9 -208 53 -234 55 -34 141 -18 167 29 15 30 12 34 -12 17 -32
-23 -65 -20 -83 8 -13 19 -15 51 -13 167 l3 144 49 1 c72 1 73 24 2 24 l-56 0
0 74 c0 41 -4 77 -9 80 -5 4 -25 -16 -45 -43z"/>
<path d="M5874 1383 c-9 -16 -44 -56 -77 -90 -33 -35 -56 -63 -51 -64 5 -1 20
-2 34 -2 l25 -2 5 -160 c3 -88 9 -168 14 -178 12 -25 59 -47 99 -47 40 0 100
37 106 65 3 19 3 19 -17 2 -28 -26 -73 -19 -89 13 -9 17 -12 67 -10 165 l2
140 49 1 c69 1 72 22 4 26 l-53 3 -3 78 c-2 42 -7 77 -11 77 -5 0 -17 -12 -27
-27z"/>
<path d="M9655 1360 c-20 -27 -55 -65 -77 -84 -42 -36 -43 -60 -2 -50 l24 6 0
-146 c0 -166 10 -205 59 -230 55 -29 136 -12 161 33 15 30 12 34 -12 17 -32
-22 -64 -20 -82 6 -13 18 -16 53 -16 170 l0 148 52 -2 c34 -2 53 1 55 10 4 9
-11 12 -51 12 l-56 0 0 74 c0 41 -4 77 -9 80 -5 4 -26 -16 -46 -44z"/>
<path d="M11155 1360 c-20 -27 -55 -65 -77 -84 -43 -37 -44 -56 -3 -48 l25 4
0 -138 c0 -167 9 -208 53 -234 55 -34 141 -18 167 29 15 30 12 34 -12 17 -32
-22 -64 -20 -82 6 -13 18 -16 53 -16 171 l0 148 52 -2 c33 -2 53 1 56 9 2 8
-13 12 -52 12 l-56 0 0 74 c0 41 -4 77 -9 80 -5 4 -26 -16 -46 -44z"/>
<path d="M560 1252 c-35 -17 -80 -73 -80 -100 0 -9 12 -4 35 17 49 42 113 44
145 4 12 -15 20 -38 18 -52 -2 -20 -13 -28 -63 -45 -115 -40 -155 -73 -155
-129 0 -95 109 -139 192 -77 l27 20 25 -25 c34 -34 88 -34 121 0 24 23 33 45
19 45 -4 0 -13 -8 -20 -17 -24 -33 -32 0 -36 145 -4 122 -7 146 -24 170 -27
36 -80 62 -129 62 -22 0 -56 -8 -75 -18z m95 -349 c-14 -13 -32 -23 -40 -23
-26 0 -45 31 -45 74 0 36 6 48 33 73 18 16 42 35 52 41 19 10 20 7 23 -66 3
-72 1 -78 -23 -99z"/>
<path d="M1450 1254 c-49 -21 -70 -42 -96 -99 -44 -93 -28 -195 41 -262 52
-49 111 -63 178 -43 48 14 127 87 127 116 0 15 -6 12 -26 -14 -31 -40 -73 -62
-115 -62 -59 0 -119 86 -119 173 l0 27 130 0 c124 0 130 1 130 20 0 54 -56
128 -113 149 -39 15 -96 13 -137 -5z"/>
<path d="M2343 1263 c-56 -4 -68 -18 -29 -32 13 -5 26 -17 30 -26 3 -9 6 -79
6 -155 0 -143 0 -143 -45 -175 -18 -13 -8 -14 94 -15 l113 0 -31 29 c-31 29
-31 30 -31 126 0 93 1 97 29 126 35 34 52 36 97 9 18 -12 35 -17 38 -12 2 4 8
31 12 59 6 45 4 52 -14 62 -11 6 -30 11 -41 11 -27 0 -76 -43 -91 -80 -19 -45
-30 -36 -30 25 0 62 13 56 -107 48z"/>
<path d="M2790 1243 c-44 -23 -59 -39 -82 -82 -83 -158 31 -334 207 -319 69 6
123 35 160 87 28 39 30 50 30 126 0 76 -2 87 -30 126 -38 54 -93 82 -170 87
-51 3 -68 -1 -115 -25z m165 -27 c45 -45 59 -166 30 -264 -32 -106 -123 -113
-176 -12 -20 39 -17 176 4 232 10 27 26 52 35 58 31 18 82 11 107 -14z"/>
<path d="M3187 1261 c-52 -7 -60 -18 -25 -35 22 -11 23 -16 26 -166 l3 -155
-28 -22 -28 -23 110 0 110 1 -27 20 -28 21 0 128 0 128 31 26 c36 31 59 33 90
7 23 -19 24 -24 24 -157 0 -92 -4 -139 -11 -141 -6 -2 -20 -10 -30 -18 -17
-13 -6 -14 95 -15 l113 0 -31 29 -31 29 0 127 c0 137 -8 166 -56 204 -48 38
-115 24 -169 -34 l-32 -35 1 42 c1 41 0 43 -29 44 -16 1 -51 -1 -78 -5z"/>
<path d="M4702 1253 c-34 -17 -65 -53 -76 -90 -10 -30 -3 -29 32 7 60 59 169
28 160 -46 -3 -24 -11 -30 -63 -48 -118 -41 -155 -73 -155 -134 0 -26 9 -43
35 -69 33 -33 39 -35 81 -30 25 2 59 14 75 26 l28 21 25 -25 c34 -34 88 -34
121 0 24 23 33 45 19 45 -4 0 -13 -8 -20 -17 -24 -33 -32 0 -36 144 -3 124 -6
145 -24 170 -43 59 -134 80 -202 46z m102 -344 c-41 -45 -94 -25 -94 37 0 48
8 61 59 100 l46 36 3 -77 c2 -61 -1 -81 -14 -96z"/>
<path d="M5087 1261 c-52 -7 -60 -18 -25 -35 23 -11 23 -14 23 -171 0 -156 -1
-160 -22 -170 -44 -19 -22 -25 85 -25 l107 1 -27 20 -28 21 0 184 0 184 -32
-2 c-18 0 -54 -4 -81 -7z"/>
<path d="M5353 1263 c-57 -4 -67 -15 -30 -34 12 -7 25 -17 29 -23 4 -6 8 -75
8 -153 0 -147 0 -146 -45 -178 -18 -13 -9 -14 88 -15 59 0 107 2 107 5 0 2
-11 15 -25 29 -24 24 -25 31 -25 131 0 117 11 153 55 173 36 17 52 15 75 -8
18 -18 20 -33 20 -154 l0 -134 -27 -21 -28 -20 109 -1 109 0 -27 25 c-25 24
-26 27 -26 150 0 144 -11 184 -62 215 -59 36 -123 20 -172 -42 l-26 -33 0 48
c0 53 13 48 -107 40z"/>
<path d="M6123 1263 c-57 -4 -67 -15 -30 -34 12 -7 25 -17 29 -23 12 -17 9
-285 -2 -307 -6 -10 -17 -19 -25 -19 -7 0 -17 -4 -20 -10 -4 -6 34 -10 105
-10 l112 0 -31 29 -31 29 0 176 0 176 -27 -2 c-16 -1 -52 -3 -80 -5z"/>
<path d="M6387 1261 c-52 -7 -60 -18 -26 -35 31 -15 38 -56 36 -199 l-2 -119
-30 -24 -30 -24 110 0 110 1 -27 20 c-28 21 -28 21 -28 146 0 124 0 125 29
154 36 35 64 37 96 4 24 -23 25 -30 25 -145 0 -122 -8 -160 -35 -160 -8 0 -15
-4 -15 -10 0 -6 42 -10 108 -10 l107 0 -30 24 -30 24 -5 144 c-6 158 -15 185
-71 208 -48 20 -99 6 -141 -39 l-38 -40 0 44 c0 44 0 45 -32 43 -18 0 -54 -4
-81 -7z"/>
<path d="M6919 1247 c-58 -30 -93 -93 -85 -155 7 -53 25 -80 73 -109 l37 -22
-28 -11 c-15 -5 -31 -10 -35 -10 -19 0 -44 -42 -43 -72 1 -36 40 -78 72 -78
31 0 32 -17 1 -23 -16 -4 -45 -20 -65 -38 -29 -25 -36 -38 -36 -68 0 -77 70
-124 190 -125 161 -2 259 84 236 208 -12 65 -79 105 -201 121 -80 11 -115 24
-115 45 0 27 24 37 102 42 103 8 162 52 174 130 5 27 1 48 -15 78 -11 22 -21
42 -21 43 0 1 18 1 40 -1 40 -4 40 -4 40 32 l0 36 -138 0 c-125 0 -143 -2
-183 -23z m147 -28 c14 -15 20 -40 22 -93 5 -84 -13 -132 -52 -142 -64 -16
-96 29 -96 136 0 62 3 74 25 95 30 31 75 33 101 4z m31 -470 c54 -17 83 -46
83 -84 0 -46 -29 -65 -100 -65 -101 0 -190 48 -190 102 0 57 100 79 207 47z"/>
<path d="M8929 1247 c-58 -31 -98 -96 -106 -169 -23 -220 227 -325 350 -148
31 45 17 50 -22 7 -36 -38 -44 -42 -89 -42 -39 0 -56 5 -76 24 -27 26 -56 98
-56 143 l0 28 129 0 c72 0 132 3 134 8 9 14 -22 84 -50 114 -57 61 -139 74
-214 35z"/>
<path d="M9313 1250 c-41 -24 -53 -48 -53 -103 0 -59 25 -89 111 -132 68 -35
89 -56 89 -93 0 -46 -72 -68 -118 -37 -12 9 -33 36 -48 60 -14 25 -28 45 -30
45 -2 0 -4 -33 -4 -72 l0 -73 90 -3 c87 -2 90 -1 124 28 60 53 71 136 25 194
-12 15 -52 42 -90 61 -79 40 -95 61 -73 93 30 44 108 22 139 -39 23 -44 35
-35 35 29 l0 57 -83 2 c-67 2 -89 -1 -114 -17z"/>
<path d="M9997 1260 c-46 -14 -98 -60 -118 -104 -27 -60 -25 -159 4 -211 70
-123 254 -142 351 -35 125 139 27 361 -159 359 -27 0 -63 -5 -78 -9z m131 -42
c33 -36 44 -77 43 -163 0 -123 -33 -185 -98 -185 -66 0 -103 67 -103 185 0 77
15 131 45 161 32 32 84 32 113 2z"/>
<path d="M10350 1263 c-69 -6 -80 -12 -48 -29 15 -8 32 -23 38 -34 5 -10 10
-78 10 -150 l0 -132 -31 -29 -31 -29 113 0 c102 1 112 2 94 15 -44 32 -45 34
-45 139 0 99 1 103 28 129 35 34 62 34 101 1 17 -14 31 -24 31 -21 0 2 5 28
10 57 9 45 8 56 -6 72 -38 41 -102 9 -145 -72 l-18 -35 -1 63 c0 70 11 64
-100 55z"/>
<path d="M10760 1252 c-32 -17 -89 -97 -77 -108 2 -3 18 9 35 26 25 25 39 30
76 30 58 0 89 -26 84 -73 -3 -29 -8 -33 -63 -52 -152 -52 -196 -126 -120 -202
33 -33 39 -35 81 -30 25 2 59 14 75 26 l28 21 25 -25 c34 -34 88 -34 121 0 24
23 33 45 19 45 -4 0 -12 -7 -19 -17 -26 -36 -35 -3 -35 130 0 145 -11 183 -62
220 -39 29 -123 34 -168 9z m120 -257 l0 -85 -35 -17 c-33 -16 -36 -15 -55 2
-20 18 -27 66 -14 100 6 13 90 85 100 85 2 0 4 -38 4 -85z"/>
<path d="M11425 1263 c-60 -5 -78 -18 -42 -32 14 -6 31 -20 37 -31 15 -28 10
-302 -6 -307 -6 -2 -20 -10 -30 -18 -17 -13 -6 -14 96 -14 89 0 110 2 95 11
-43 23 -45 35 -45 220 l0 178 -27 -2 c-16 -1 -50 -3 -78 -5z"/>
<path d="M11745 1258 c-50 -18 -92 -55 -115 -103 -32 -66 -26 -165 13 -224 79
-120 283 -119 362 1 48 73 45 189 -9 261 -46 62 -168 94 -251 65z m140 -44
c49 -53 57 -212 15 -295 -21 -40 -36 -49 -81 -49 -77 0 -118 128 -88 271 14
66 46 99 94 99 26 0 43 -7 60 -26z"/>
<path d="M12113 1263 c-56 -4 -68 -18 -29 -32 13 -5 26 -17 30 -26 3 -9 6 -79
6 -155 0 -143 0 -143 -45 -175 -18 -13 -9 -14 88 -15 59 0 107 2 107 5 0 2
-11 15 -25 29 -24 24 -25 31 -25 135 0 103 2 111 25 140 29 34 56 45 86 36 35
-11 49 -64 49 -181 0 -106 0 -106 -31 -135 l-31 -29 106 0 c64 0 106 4 106 10
0 6 -4 10 -9 10 -5 0 -17 7 -25 16 -13 12 -16 40 -16 140 0 168 -22 218 -104
231 -47 7 -90 -11 -126 -56 l-30 -36 0 48 c0 53 13 48 -107 40z"/>
<path d="M8828 613 c-9 -2 -22 -18 -28 -34 -23 -55 7 -309 50 -425 13 -36 16
-54 8 -62 -14 -14 -1 -32 22 -32 23 0 80 47 80 66 0 8 12 38 26 67 41 80 104
264 104 302 0 24 -5 35 -14 35 -24 0 -46 -30 -46 -61 0 -48 -98 -289 -118
-289 -19 0 -35 107 -40 268 -3 119 -8 172 -16 171 -6 -1 -18 -3 -28 -6z"/>
<path d="M7374 578 c-44 -53 -94 -169 -113 -264 -17 -85 -20 -89 -71 -136 -29
-27 -55 -47 -57 -44 -3 3 0 27 6 53 18 72 -15 143 -64 143 -24 0 -55 -29 -55
-51 0 -8 -20 -37 -44 -64 -38 -44 -45 -48 -60 -36 -9 8 -16 28 -16 47 0 48
-21 44 -92 -17 -32 -29 -61 -49 -64 -46 -6 6 76 99 134 150 37 34 42 57 10 57
-28 -1 -83 -41 -170 -126 -77 -74 -104 -81 -122 -27 -6 17 -14 35 -18 38 -15
16 -45 -8 -68 -56 -35 -72 -50 -81 -50 -33 0 33 12 56 79 147 85 115 123 192
125 247 1 29 -3 36 -22 38 -54 8 -178 -171 -217 -313 -9 -33 -20 -68 -26 -78
-9 -17 -5 -84 8 -129 9 -36 51 -21 89 32 20 27 39 50 43 50 3 0 12 -9 19 -20
15 -25 54 -26 88 -3 25 16 26 16 24 -3 -8 -71 49 -64 124 15 17 17 33 31 37
31 4 0 12 -13 18 -30 5 -16 15 -31 20 -31 6 -1 17 -2 24 -3 25 -4 66 25 112
79 26 30 51 55 56 55 5 0 13 -9 19 -20 8 -14 6 -37 -6 -86 -14 -54 -15 -67 -4
-74 18 -11 74 18 132 69 52 47 58 49 58 22 0 -25 46 -61 77 -61 28 0 99 34
131 63 l22 20 0 -35 c0 -42 25 -68 66 -68 82 0 189 145 154 209 -12 24 -43 35
-71 26 -13 -5 -19 -3 -15 3 3 5 0 12 -8 15 -8 3 -36 -16 -67 -47 -141 -139
-217 -163 -243 -79 -5 16 3 38 28 77 76 118 124 251 111 303 -8 33 -38 29 -71
-9z"/>
<path d="M6218 559 c-124 -65 -209 -248 -179 -382 24 -109 129 -157 237 -108
37 17 80 59 70 68 -2 2 -19 -5 -37 -16 -82 -47 -149 -30 -190 51 -18 35 -20
53 -16 103 9 85 33 148 76 196 34 39 42 43 85 43 62 1 76 -17 53 -66 -18 -38
-36 -111 -37 -146 0 -19 5 -23 26 -20 35 4 64 76 71 179 5 69 4 78 -16 98 -27
27 -92 27 -143 0z"/>
<path d="M7931 465 c-21 -36 -21 -36 -80 -32 -62 4 -81 -4 -81 -35 0 -19 20
-26 83 -30 l38 -3 -53 -80 c-29 -44 -65 -86 -80 -93 -28 -13 -78 -67 -78 -83
0 -5 17 2 37 16 21 14 43 25 49 25 6 0 28 18 48 40 20 22 38 40 40 40 2 0 0
-17 -5 -37 -13 -59 -11 -119 6 -133 12 -10 24 -5 69 34 30 25 75 67 101 92 48
46 48 46 42 16 -3 -16 -9 -52 -13 -80 -6 -45 -4 -51 15 -62 19 -10 29 -5 81
40 33 29 60 48 60 43 0 -24 42 -53 76 -53 60 0 166 72 142 95 -2 2 -27 -8 -56
-22 -44 -22 -57 -24 -77 -15 -14 7 -25 17 -25 23 0 6 22 32 49 58 71 66 79
131 16 131 -32 0 -98 -68 -114 -118 -13 -40 -69 -102 -91 -102 -15 0 -12 36
12 133 16 66 27 91 40 95 14 3 17 15 17 68 -1 74 -15 84 -47 29 l-21 -34 -76
1 -76 1 3 31 c4 45 -24 46 -51 1z m168 -101 c2 -1 -12 -29 -30 -60 -43 -77
-148 -178 -166 -161 -7 7 9 91 32 171 10 35 22 56 33 58 18 4 125 -2 131 -8z"/>
<path d="M10818 464 l-21 -36 -66 4 -66 3 0 -30 c0 -29 2 -30 53 -33 28 -2 52
-6 52 -9 0 -31 -135 -197 -152 -187 -4 3 -17 23 -28 45 -27 53 -49 50 -116
-12 -30 -29 -54 -50 -54 -48 0 2 9 32 20 67 20 64 16 102 -12 102 -19 0 -215
-216 -205 -227 9 -8 68 35 104 76 17 19 35 32 39 29 4 -4 -1 -34 -10 -66 -21
-75 -20 -82 6 -82 14 0 44 24 85 68 l64 67 37 -43 c20 -23 43 -42 50 -42 8 0
43 28 79 63 54 50 65 57 59 37 -3 -14 -9 -50 -12 -81 -6 -51 -4 -58 14 -68 18
-9 29 -4 81 42 42 36 61 59 61 75 l0 23 -30 -21 c-16 -11 -32 -25 -35 -30 -4
-6 -12 -10 -19 -10 -26 0 25 214 55 230 13 8 17 23 16 70 0 71 -16 79 -49 24z"/>
<path d="M9128 330 c-71 -59 -98 -171 -52 -221 44 -48 153 -6 235 92 22 27 45
49 50 49 4 0 13 -9 19 -20 8 -15 7 -37 -6 -86 -13 -54 -14 -68 -3 -74 21 -13
88 27 145 88 30 31 56 53 59 51 3 -3 -2 -29 -11 -59 -26 -86 -6 -85 83 6 68
70 78 76 81 56 2 -12 -3 -46 -12 -75 -23 -78 -6 -82 62 -14 32 31 64 57 73 57
8 0 28 -13 44 -30 37 -38 65 -38 110 1 l35 31 0 -41 c0 -94 106 -79 187 27 55
72 39 161 -26 149 -16 -3 -29 1 -37 11 -11 14 -17 11 -55 -28 -80 -81 -140
-131 -150 -124 -5 3 -21 24 -35 45 -28 46 -49 46 -96 1 -15 -14 -30 -24 -32
-21 -2 2 0 26 4 54 14 93 -11 100 -85 20 -28 -30 -54 -55 -58 -55 -4 0 -6 21
-4 46 1 32 -2 48 -11 51 -7 3 -56 -39 -109 -93 -53 -54 -98 -93 -101 -86 -2 6
2 28 8 47 29 89 -50 186 -103 127 -10 -10 -17 -24 -17 -31 0 -25 -66 -100
-106 -120 -47 -24 -65 -26 -82 -9 -20 20 -14 33 39 86 43 43 50 55 47 84 -4
46 -40 49 -90 8z"/>
</g>
</svg>
